<?xml version="1.0" encoding="UTF-8" standalone="no"?>
<!-- Created with Inkscape (http://www.inkscape.org/) -->

<svg
   width="123.745mm"
   height="147.26199mm"
   viewBox="0 0 123.745 147.26199"
   version="1.1"
   id="svg1"
   sodipodi:docname="bicep_thick_filled.svg"
   inkscape:version="1.3.2 (091e20e, 2023-11-25, custom)"
   xml:space="preserve"
   inkscape:export-filename="bicep_thick.svg"
   inkscape:export-xdpi="96"
   inkscape:export-ydpi="96"
   xmlns:inkscape="http://www.inkscape.org/namespaces/inkscape"
   xmlns:sodipodi="http://sodipodi.sourceforge.net/DTD/sodipodi-0.dtd"
   xmlns="http://www.w3.org/2000/svg"
   xmlns:svg="http://www.w3.org/2000/svg"><sodipodi:namedview
     id="namedview1"
     pagecolor="#ffffff"
     bordercolor="#000000"
     borderopacity="0.25"
     inkscape:showpageshadow="2"
     inkscape:pageopacity="0.0"
     inkscape:pagecheckerboard="0"
     inkscape:deskcolor="#d1d1d1"
     inkscape:document-units="mm"
     inkscape:zoom="0.70710678"
     inkscape:cx="383.95898"
     inkscape:cy="436.28488"
     inkscape:window-width="1920"
     inkscape:window-height="1001"
     inkscape:window-x="-9"
     inkscape:window-y="-9"
     inkscape:window-maximized="1"
     inkscape:current-layer="layer1"
     showguides="false" /><defs
     id="defs1"><inkscape:path-effect
       effect="simplify"
       id="path-effect5"
       is_visible="true"
       lpeversion="1.3"
       threshold="100"
       steps="16.455197"
       smooth_angles="360"
       helper_size="10"
       simplify_individual_paths="false"
       simplify_just_coalesce="false" /><inkscape:path-effect
       effect="simplify"
       id="path-effect4"
       is_visible="true"
       lpeversion="1.3"
       threshold="100"
       steps="24.885305"
       smooth_angles="360"
       helper_size="10"
       simplify_individual_paths="false"
       simplify_just_coalesce="false" /><inkscape:path-effect
       effect="simplify"
       id="path-effect3"
       is_visible="true"
       lpeversion="1.3"
       threshold="100"
       steps="9.5175781"
       smooth_angles="360"
       helper_size="10"
       simplify_individual_paths="false"
       simplify_just_coalesce="false" /><inkscape:path-effect
       effect="simplify"
       id="path-effect2"
       is_visible="true"
       lpeversion="1.3"
       threshold="100"
       steps="1"
       smooth_angles="360"
       helper_size="10"
       simplify_individual_paths="false"
       simplify_just_coalesce="false" /><inkscape:path-effect
       effect="simplify"
       id="path-effect1"
       is_visible="true"
       lpeversion="1.3"
       threshold="100"
       steps="50"
       smooth_angles="360"
       helper_size="10.488281"
       simplify_individual_paths="false"
       simplify_just_coalesce="false" /></defs><g
     inkscape:label="Warstwa 1"
     inkscape:groupmode="layer"
     id="layer1"><path
       style="fill:#000000;fill-opacity:1;stroke:#000000;stroke-width:0.635;stroke-linecap:round;stroke-linejoin:round;stroke-dasharray:none;stroke-opacity:1;paint-order:markers stroke fill"
       d="M 0.32047194,146.94385 C 18.999952,140.40603 30.272272,114.04648 30.272272,114.04648 c 24.7546,18.45578 61.835873,4.42761 85.455918,-11.172 12.56626,-8.484812 6.94704,-28.363372 2.71595,-39.018282 -4.091,-10.30214 -11.98503,-19.92782 -16.71718,-29.05815 -1.57477,-3.0384 -3.088425,-5.761397 -4.461625,-8.387917 -2.94127,-5.625771 -4.73535,-10.583541 -6.87971,-13.375591 -3.88467,-5.0579897 -7.24709,-6.5051197 -12.59802,-8.6198597 -6.16981,-2.55373 -12.78451,-4.60019809 -17.964963,-3.98716809 -3.36682,0.39841 -9.95145,7.18583809 -10.67873,8.34367809 -1.17398,1.8690197 -1.49974,3.7476497 -1.65355,5.8350097 -0.0314,0.42668 -0.0348,0.82738 -0.0195,1.20322 0.0148,0.36409 0.0472,0.70485 0.0885,1.02331 0.28258,2.1767 1.20394,3.55845 2.24604,4.14328 1.7407,0.97689 3.606,0.12461 3.606,0.12461 0.64322,1.460651 1.98872,1.900711 3.31398,2.275351 1.97356,0.55791 3.19954,-0.22784 3.19954,-0.22784 0.40153,0.5962 1.836123,1.78199 3.024313,1.98238 1.37743,0.23231 2.77299,-0.39071 2.77299,-0.39071 1.01629,1.74221 2.42947,2.20176 3.60525,2.39367 2.60613,0.42536 4.84364,-1.20596 4.84364,-1.20596 3.16884,2.20151 5.93736,1.6011 5.93736,1.6011 7.27943,10.580637 4.86822,23.042687 3.67095,34.806627 -0.7485,8.20752 -0.66885,14.49385 -0.66885,14.49385 -5.94473,-7.72104 -12.35579,-10.97781 -18.75521,-12.05303 -11.626153,-1.95339 -22.139513,3.44712 -22.139513,3.44712 -8.53646,-11.47299 -19.74312,-14.59609 -28.16173,-14.32499 -8.0292501,0.25855 -13.73148406,3.71439 -13.73148406,3.71439 0,0 6.87561396,-2.15317 13.91653406,-1.02115 5.82496,0.93653 11.89588,3.50541 16.1345,6.77631 4.1868,3.23092 6.5931,7.13708 4.03683,12.39395 0,0 8.24211,-3.9856 18.0713,-5.86469 17.000183,-3.24999 25.098673,6.15481 33.378763,13.04155 0,0 0.72096,-5.89902 1.01461,-13.70818 0.24606,-6.5424 1.45115,-14.35426 1.23503,-21.31737 -0.20429,-6.58132 -1.27068,-12.06741 -1.66345,-16.27224 -0.43905,-4.700207 -0.14231,-7.775947 1.00013,-8.515167 0,0 -8.07221,4.90336 -14.20975,-0.633771 0,0 2.00257,-2.60227 2.04977,-3.0622 0,0 0.067,-0.28513 -0.19803,-0.50383 -0.24557,-0.20266 -0.73295,-0.3295 -1.22226,0.38843 0,0 -0.3424,0.62879 -0.79062,1.46699 l -2.51179,3.853521 1.30267,-0.67063 1.19111,1.23239 c 0,0 -1.81168,0.61474 -3.53703,0.46448 -1.16448,-0.10141 -2.28743,-0.63651 -2.79591,-1.62021 0,0 -0.59247,-0.74062 0.68814,-3.680871 1.83873,-2.81438 2.5973,-3.51514 2.61115,-6.74087 0,0 -0.0381,-0.6136 -0.68278,-0.63744 -0.22539,-0.008 -0.76887,0.0568 -0.82199,0.70677 -0.11064,1.35374 -0.26554,1.99453 -0.73642,3.46296 -0.24787,0.61085 -0.70162,1.15046 -1.04685,1.805 -0.89215,1.69153 -1.10861,3.604091 -1.36748,4.140991 0,0 -0.98334,0.67754 -2.20233,0.5368 -1.52806,-0.17643 -3.230793,-1.647661 -2.774403,-3.720961 0,0 0.625613,-1.90845 1.644233,-3.81683 1.64564,-2.26985 2.17678,-3.79141 2.17678,-6.4633097 -0.007,-0.92963 -1.59824,-0.92632 -1.62554,0.0825 0.04,1.5040297 -0.0707,2.4312897 -0.7215,3.9867897 -0.78687,1.88076 -2.727183,4.70061 -2.965803,6.59635 -0.08,0.63577 0.0185,1.10565 0.19458,1.45419 0,0 -1.01452,0.28676 -2.19364,-0.0834 -1.59321,-0.5001 -3.15849,-2.4246 -2.40571,-5.29433 0,0 0.6806,-2.60147 1.83953,-5.05052 0.35524,-0.75069 0.82654,-1.5095897 1.2894,-2.1427997 0.36532,-0.49978 0.66875,-0.92207 0.83358,-1.36855 0,0 0.36121,-0.97108 -0.0714,-1.21693 -0.0782,-0.0444 -0.60275,-0.15765 -0.81825,0.0678 -0.20645,0.21599 -0.25686,0.81186 -0.39584,1.12554 0,0 -0.44259,0.86671 -1.22829,1.90728 -1.23784,1.6393597 -2.0881,3.9734897 -2.9953,6.4253497 -0.39175,1.32179 -0.36023,2.34828 0.20777,3.56754 0,0 -4.13041,1.59328 -4.17189,-3.18838 -0.0204,-2.35763 0.1056,-3.41491 0.36733,-4.62198 0.55791,-2.5730697 7.53431,-9.6926697 10.92357,-9.8748097 2.530553,-0.13599 3.673843,-0.0889 5.906603,0.60678 6.43667,2.05479 12.42541,3.55356 17.52097,7.05283 1.83492,1.2600897 3.6314,2.6761697 4.75194,4.6195797 3.91987,6.79844 7.10283,14.857921 10.67392,21.446118 4.694985,8.66165 11.581065,18.33888 15.821915,28.11098 2.92245,6.73416 4.07583,13.773 4.64826,19.78591 1.07299,11.2709 -5.10611,15.56341 -13.88612,20.174062 -10.583415,5.55768 -47.725208,23.09571 -70.747118,8.85849 -2.16467,-1.33868 -5.03973,-4.10894 -8.27143,-3.47319 0,0 -5.60825,1.28147 -5.43239,6.03951 0,0 1.32084,1.0378 4.71728,-1.83974 0,0 -2.63516,8.83622 -8.16109,16.78573 -5.29054,7.61088 -13.3865701,14.29216 -17.49799006,16.77206 z"
       id="path3-9"
       sodipodi:nodetypes="csssscsssssssccscssscccccsccsccsccsccccssccscscscssccssscssssssscssscccccssscssssssccccscc" /><path
       style="fill:#bdf271;fill-opacity:1;stroke:#000000;stroke-width:0.635;stroke-linecap:round;stroke-linejoin:round;stroke-dasharray:none;stroke-opacity:1;paint-order:markers stroke fill"
       d="m 0.31804528,146.94612 0.002,-89.331279 c 0,0 6.87561002,-2.15317 13.91653072,-1.02115 5.82496,0.93653 11.89588,3.50541 16.1345,6.77631 4.1868,3.23092 6.5931,7.13708 4.03683,12.39395 0,0 8.24211,-3.9856 18.0713,-5.86469 17.00018,-3.24999 25.09867,6.15481 33.37876,13.04155 0,0 0.72096,-5.89902 1.01461,-13.70818 0.24606,-6.5424 1.45115,-14.35426 1.23503,-21.31737 -0.20429,-6.58132 -1.27068,-12.06741 -1.66345,-16.27224 -0.43905,-4.700207 -0.14231,-7.775947 1.00013,-8.515167 0,0 -8.07221,4.90336 -14.20975,-0.633771 0,0 2.00257,-2.60227 2.04977,-3.0622 0,0 0.067,-0.28513 -0.19803,-0.50383 -0.24557,-0.20266 -0.73295,-0.3295 -1.22226,0.38843 0,0 -0.3424,0.62879 -0.79062,1.46699 l -2.51179,3.853521 1.30267,-0.67063 1.19111,1.23239 c 0,0 -1.81168,0.61474 -3.53703,0.46448 -1.16448,-0.10141 -2.28743,-0.63651 -2.79591,-1.62021 0,0 -0.59247,-0.74062 0.68814,-3.680871 1.83873,-2.81438 2.5973,-3.51514 2.61115,-6.74087 0,0 -0.0381,-0.6136 -0.68278,-0.63744 -0.22539,-0.008 -0.76887,0.0568 -0.82199,0.70677 -0.11064,1.35374 -0.26554,1.99453 -0.73642,3.46296 -0.24787,0.61085 -0.70162,1.15046 -1.04685,1.805 -0.89215,1.69153 -1.10861,3.604091 -1.36748,4.140991 0,0 -0.98334,0.67754 -2.20233,0.5368 -1.52806,-0.17643 -3.23079,-1.647661 -2.7744,-3.720961 0,0 0.62561,-1.90845 1.64423,-3.81683 1.64564,-2.26985 2.17678,-3.79141 2.17678,-6.4633089 -0.007,-0.92963 -1.59824,-0.92632 -1.62554,0.0825 0.04,1.5040289 -0.0707,2.4312889 -0.7215,3.9867889 -0.78687,1.88076 -2.72718,4.70061 -2.9658,6.59635 -0.08,0.63577 0.0185,1.10565 0.19458,1.45419 0,0 -1.01452,0.28676 -2.19364,-0.0834 -1.59321,-0.5001 -3.15849,-2.4246 -2.40571,-5.29433 0,0 0.6806,-2.60147 1.83953,-5.05052 0.35524,-0.75069 0.82654,-1.5095889 1.2894,-2.1427989 0.36532,-0.49978 0.66875,-0.92207 0.83358,-1.36855 0,0 0.36121,-0.97108 -0.0714,-1.21693 -0.0782,-0.0444 -0.60275,-0.15765 -0.81825,0.0678 -0.20645,0.21599 -0.25686,0.81186 -0.39584,1.12554 0,0 -0.44259,0.86671 -1.22829,1.90728 -1.23784,1.6393589 -2.0881,3.9734889 -2.9953,6.4253489 -0.39175,1.32179 -0.36023,2.34828 0.20777,3.56754 0,0 -4.13041,1.59328 -4.17189,-3.18838 -0.0204,-2.35763 0.1056,-3.41491 0.36733,-4.62198 0.55791,-2.5730689 7.53431,-9.6926691 10.92357,-9.8748091 2.53055,-0.13599 3.67384,-0.0889 5.9066,0.60678 6.43667,2.05479 12.42541,3.5535602 17.52097,7.0528302 1.83492,1.2600889 3.6314,2.6761689 4.75194,4.6195789 3.91987,6.79844 7.10283,14.857921 10.673925,21.446118 4.694979,8.66165 11.581059,18.33888 15.821909,28.11098 2.92245,6.73416 4.07583,13.773 4.64826,19.78591 1.07299,11.270899 -5.10611,15.563415 -13.88612,20.174069 -10.583414,5.55768 -47.725204,23.09571 -70.747114,8.85849 -2.16467,-1.33868 -5.03973,-4.10894 -8.27143,-3.47319 0,0 -5.60825,1.28147 -5.43239,6.03951 0,0 1.32084,1.0378 4.71728,-1.83974 0,0 -2.63516,8.83622 -8.16109,16.78573 -5.290541,7.61088 -13.3865707,14.29216 -17.49799072,16.77206 z"
       id="path1"
       sodipodi:nodetypes="ccsccsccsccccssccscscscssccssscssssssscssscccccssscssssssccccscc" /><path
       style="fill:#bdf271;fill-opacity:1;stroke:none;stroke-width:2.3074;stroke-linecap:round;stroke-linejoin:round;stroke-opacity:1;paint-order:markers stroke fill"
       d="m -0.00286978,260.5 c 4.53e-6,-23.2375 0.02941421,-32.70674 0.06535486,-21.04275 0.03594065,11.664 0.03593692,30.6765 -8.23e-6,42.25001 C 0.02653168,293.28077 -0.0028743,283.7375 -0.00286978,260.5 Z"
       id="path2"
       transform="scale(0.26458333)" /><path
       style="fill:#bdf271;fill-opacity:1;stroke:none;stroke-width:2.3074;stroke-linecap:round;stroke-linejoin:round;stroke-opacity:1;paint-order:markers stroke fill"
       d=""
       id="path3"
       transform="scale(0.26458333)" /><path
       style="fill:#bdf271;fill-opacity:1;stroke:#bdf271;stroke-width:0.542;stroke-linecap:round;stroke-linejoin:round;stroke-dasharray:none;stroke-opacity:1;paint-order:markers stroke fill"
       d="m 3.4533686,144.10005 c 0,0 -3.52745322,2.90038 -3.6928178,2.88384"
       id="path4"
       sodipodi:nodetypes="cc" /><path
       style="fill:#bdf271;fill-opacity:1;stroke:#bdf271;stroke-width:0.541999;stroke-linecap:round;stroke-linejoin:round;stroke-dasharray:none;stroke-opacity:1;paint-order:markers stroke fill"
       d="M 1.1985368,57.646696 0.12862346,57.93902"
       id="path5"
       sodipodi:nodetypes="cc" /><rect
       style="fill:#bdf271;fill-opacity:1;stroke:#bdf271;stroke-width:0.924493;stroke-linecap:round;stroke-linejoin:round;stroke-dasharray:none;stroke-opacity:1;paint-order:markers stroke fill"
       id="rect5"
       width="0.19470622"
       height="88.09758"
       x="0.20935935"
       y="58.201145" /></g></svg>
