<?xml version="1.0" encoding="UTF-8" standalone="no"?>
<!-- Created with Inkscape (http://www.inkscape.org/) -->

<svg
   width="134.5643mm"
   height="134.14943mm"
   viewBox="0 0 134.5643 134.14942"
   version="1.1"
   id="svg1"
   sodipodi:docname="bicep_outline_thick_filled_primary.svg"
   inkscape:version="1.3.2 (091e20e, 2023-11-25, custom)"
   xml:space="preserve"
   inkscape:export-filename="bicep_thick_filled_black_squared.png"
   inkscape:export-xdpi="96"
   inkscape:export-ydpi="96"
   xmlns:inkscape="http://www.inkscape.org/namespaces/inkscape"
   xmlns:sodipodi="http://sodipodi.sourceforge.net/DTD/sodipodi-0.dtd"
   xmlns="http://www.w3.org/2000/svg"
   xmlns:svg="http://www.w3.org/2000/svg"><sodipodi:namedview
     id="namedview1"
     pagecolor="#ffffff"
     bordercolor="#000000"
     borderopacity="0.25"
     inkscape:showpageshadow="2"
     inkscape:pageopacity="0.0"
     inkscape:pagecheckerboard="0"
     inkscape:deskcolor="#d1d1d1"
     inkscape:document-units="mm"
     inkscape:zoom="1"
     inkscape:cx="299"
     inkscape:cy="274.5"
     inkscape:window-width="1920"
     inkscape:window-height="1001"
     inkscape:window-x="-9"
     inkscape:window-y="-9"
     inkscape:window-maximized="1"
     inkscape:current-layer="layer1"
     showguides="false" /><defs
     id="defs1" /><g
     inkscape:label="Warstwa 1"
     inkscape:groupmode="layer"
     id="layer1"
     transform="translate(-5.662044,-2.1257893)"><path
       style="opacity:1;fill:#bdf271;fill-opacity:1;stroke:#000000;stroke-width:10.6;stroke-linecap:round;stroke-linejoin:round;stroke-dasharray:none;stroke-opacity:1;paint-order:markers fill stroke"
       d="m 10.995117,64.724418 c 0,0 23.760262,-13.283295 42.469129,10.570509 0,0 23.478268,-12.813707 40.411601,8.088377 0,0 1.684063,-22.493668 1.870438,-26.235977 0,0 1.07576,-16.884752 -4.817533,-21.936146 0,0 -2.576082,0.480977 -5.751082,-1.437252 0,0 -5.390885,3.141927 -8.665104,-1.223698 0,0 -3.604948,1.256771 -5.589323,-1.653646 0,0 -4.101041,1.554427 -6.713802,-2.017448 0,0 -1.818721,0.37926 -3.441854,-0.418738 -1.497587,-0.736274 -2.877258,-2.544242 -2.90445,-5.491639 -0.0164,-1.777636 0.317815,-3.969744 1.815314,-6.591185 0,0 6.68073,-9.3927086 13.229167,-8.9296878 0,0 12.170834,-0.066146 23.415625,7.7390628 0,0 5.820837,3.968749 8.202087,9.921874 0,0 8.46667,17.991667 13.75833,25.466146 0,0 11.9724,19.579167 12.76615,24.738542 0,0 4.29948,10.715625 3.83646,19.116146 0,0 1.5875,9.657292 -8.46667,16.338022 0,0 -32.544201,21.49575 -57.052817,19.7184 0,0 -16.089626,0.46773 -28.156845,-8.60607 0,0 -3.835318,9.0738 -4.583672,9.0738 l -25.664222,0.0214 z"
       id="path6"
       sodipodi:nodetypes="cccccccccssccc"
       inkscape:export-filename=".\bicep_outline_thick"
       inkscape:export-xdpi="96"
       inkscape:export-ydpi="96" /></g></svg>
