<?xml version="1.0" encoding="UTF-8" standalone="no"?>
<svg
   version="1.1"
   id="Layer_1"
   x="0px"
   y="0px"
   viewBox="0 0 15101.952 14312.534"
   xml:space="preserve"
   width="15101.952"
   height="14312.533"
   xmlns="http://www.w3.org/2000/svg"
   xmlns:svg="http://www.w3.org/2000/svg"><defs
     id="defs1" /><g
     id="g1"><path
       d="M 44.27,115.28 H 78.5 L 60.7,77.5 Z M 59.51,1.93 C 59.51,0.87 60.37,0 61.44,0 c 1.06,0 1.93,0.86 1.93,1.93 v 18.08 l 3.75,6.94 9.72,-16.83 c 0.53,-0.92 1.7,-1.24 2.62,-0.71 0.92,0.53 1.24,1.7 0.71,2.62 l -10.9,18.89 45.78,84.86 h 5.92 c 1.06,0 1.93,0.86 1.93,1.93 0,1.06 -0.86,1.93 -1.93,1.93 H 1.93 c -1.06,0 -1.93,-0.86 -1.93,-1.93 0,-1.06 0.86,-1.93 1.93,-1.93 H 7.85 L 53.56,30.79 42.72,12.03 c -0.53,-0.92 -0.21,-2.09 0.71,-2.62 0.92,-0.53 2.09,-0.21 2.62,0.71 l 9.64,16.69 3.83,-7.12 V 1.93 Z"
       id="path1" /></g></svg>
