<?xml version="1.0" encoding="UTF-8" standalone="no"?>
<!-- Created with Inkscape (http://www.inkscape.org/) -->

<svg
   width="123.74498mm"
   height="147.26183mm"
   viewBox="0 0 123.74498 147.26183"
   version="1.1"
   id="svg1"
   sodipodi:docname="bicep_thick.svg"
   inkscape:version="1.3.2 (091e20e, 2023-11-25, custom)"
   xml:space="preserve"
   inkscape:export-filename="bicep_thick.svg"
   inkscape:export-xdpi="96"
   inkscape:export-ydpi="96"
   xmlns:inkscape="http://www.inkscape.org/namespaces/inkscape"
   xmlns:sodipodi="http://sodipodi.sourceforge.net/DTD/sodipodi-0.dtd"
   xmlns="http://www.w3.org/2000/svg"
   xmlns:svg="http://www.w3.org/2000/svg"><sodipodi:namedview
     id="namedview1"
     pagecolor="#ffffff"
     bordercolor="#000000"
     borderopacity="0.25"
     inkscape:showpageshadow="2"
     inkscape:pageopacity="0.0"
     inkscape:pagecheckerboard="0"
     inkscape:deskcolor="#d1d1d1"
     inkscape:document-units="mm"
     inkscape:zoom="90.509668"
     inkscape:cx="151.85671"
     inkscape:cy="484.71618"
     inkscape:window-width="1920"
     inkscape:window-height="1001"
     inkscape:window-x="-9"
     inkscape:window-y="-9"
     inkscape:window-maximized="1"
     inkscape:current-layer="layer1"
     showguides="true" /><defs
     id="defs1" /><g
     inkscape:label="Warstwa 1"
     inkscape:groupmode="layer"
     id="layer1"
     transform="translate(-39.368031,-70.705389)"><path
       style="fill:#000000;fill-opacity:1;stroke:#000000;stroke-width:0.635;stroke-linecap:round;stroke-linejoin:round;stroke-dasharray:none;stroke-opacity:1;paint-order:markers stroke fill"
       d="m 39.685555,217.64973 c 18.67948,-6.53782 29.9518,-32.89737 29.9518,-32.89737 24.7546,18.45578 61.835875,4.42761 85.455925,-11.172 12.56626,-8.48481 6.94704,-28.36337 2.71595,-39.01828 -4.091,-10.30214 -11.98503,-19.92782 -16.71718,-29.05815 -1.57477,-3.0384 -3.08843,-5.761395 -4.46163,-8.387915 -2.94127,-5.625771 -4.73535,-10.583541 -6.87971,-13.375591 -3.88467,-5.05799 -7.24709,-6.50512 -12.59802,-8.61986 -6.16981,-2.55373 -12.78451,-4.600198 -17.964965,-3.987168 -3.36682,0.39841 -9.95145,7.185838 -10.67873,8.343678 -1.17398,1.86902 -1.49974,3.74765 -1.65355,5.83501 -0.0314,0.42668 -0.0348,0.82738 -0.0195,1.20322 0.0148,0.36409 0.0472,0.70485 0.0885,1.02331 0.28258,2.1767 1.20394,3.55845 2.24604,4.14328 1.7407,0.97689 3.606,0.12461 3.606,0.12461 0.64322,1.460651 1.98872,1.900711 3.31398,2.275351 1.97356,0.55791 3.19954,-0.22784 3.19954,-0.22784 0.40153,0.5962 1.836125,1.78199 3.024315,1.98238 1.37743,0.23231 2.77299,-0.39071 2.77299,-0.39071 1.01629,1.74221 2.42947,2.20176 3.60525,2.39367 2.60613,0.42536 4.84364,-1.20596 4.84364,-1.20596 3.16884,2.20151 5.93736,1.6011 5.93736,1.6011 7.27943,10.580635 4.86822,23.042685 3.67095,34.806625 -0.7485,8.20752 -0.66885,14.49385 -0.66885,14.49385 -5.94473,-7.72104 -12.35579,-10.97781 -18.75521,-12.05303 -11.626155,-1.95339 -22.139515,3.44712 -22.139515,3.44712 -8.53646,-11.47299 -19.74312,-14.59609 -28.16173,-14.32499 -8.02925,0.25855 -13.731484,3.71439 -13.731484,3.71439 0,0 6.875614,-2.15317 13.916534,-1.02115 5.82496,0.93653 11.89588,3.50541 16.1345,6.77631 4.1868,3.23092 6.5931,7.13708 4.03683,12.39395 0,0 8.24211,-3.9856 18.0713,-5.86469 17.000185,-3.24999 25.098675,6.15481 33.378765,13.04155 0,0 0.72096,-5.89902 1.01461,-13.70818 0.24606,-6.5424 1.45115,-14.35426 1.23503,-21.31737 -0.20429,-6.58132 -1.27068,-12.06741 -1.66345,-16.27224 -0.43905,-4.700205 -0.14231,-7.775945 1.00013,-8.515165 0,0 -8.07221,4.90336 -14.20975,-0.633771 0,0 2.00257,-2.60227 2.04977,-3.0622 0,0 0.067,-0.28513 -0.19803,-0.50383 -0.24557,-0.20266 -0.73295,-0.3295 -1.22226,0.38843 0,0 -0.3424,0.62879 -0.79062,1.46699 l -2.51179,3.853521 1.30267,-0.67063 1.19111,1.23239 c 0,0 -1.81168,0.61474 -3.53703,0.46448 -1.16448,-0.10141 -2.28743,-0.63651 -2.79591,-1.62021 0,0 -0.59247,-0.74062 0.68814,-3.680871 1.83873,-2.81438 2.5973,-3.51514 2.61115,-6.74087 0,0 -0.0381,-0.6136 -0.68278,-0.63744 -0.22539,-0.008 -0.76887,0.0568 -0.82199,0.70677 -0.11064,1.35374 -0.26554,1.99453 -0.73642,3.46296 -0.24787,0.61085 -0.70162,1.15046 -1.04685,1.805 -0.89215,1.69153 -1.10861,3.604091 -1.36748,4.140991 0,0 -0.98334,0.67754 -2.20233,0.5368 -1.52806,-0.17643 -3.230795,-1.647661 -2.774405,-3.720961 0,0 0.625615,-1.90845 1.644235,-3.81683 1.64564,-2.26985 2.17678,-3.79141 2.17678,-6.46331 -0.007,-0.92963 -1.59824,-0.92632 -1.62554,0.0825 0.04,1.50403 -0.0707,2.43129 -0.7215,3.98679 -0.78687,1.88076 -2.727185,4.70061 -2.965805,6.59635 -0.08,0.63577 0.0185,1.10565 0.19458,1.45419 0,0 -1.01452,0.28676 -2.19364,-0.0834 -1.59321,-0.5001 -3.15849,-2.4246 -2.40571,-5.29433 0,0 0.6806,-2.60147 1.83953,-5.05052 0.35524,-0.75069 0.82654,-1.50959 1.2894,-2.1428 0.36532,-0.49978 0.66875,-0.92207 0.83358,-1.36855 0,0 0.36121,-0.97108 -0.0714,-1.21693 -0.0782,-0.0444 -0.60275,-0.15765 -0.81825,0.0678 -0.20645,0.21599 -0.25686,0.81186 -0.39584,1.12554 0,0 -0.44259,0.86671 -1.22829,1.90728 -1.23784,1.63936 -2.0881,3.97349 -2.9953,6.42535 -0.39175,1.32179 -0.36023,2.34828 0.20777,3.56754 0,0 -4.13041,1.59328 -4.17189,-3.18838 -0.0204,-2.35763 0.1056,-3.41491 0.36733,-4.62198 0.55791,-2.57307 7.53431,-9.69267 10.92357,-9.87481 2.530555,-0.13599 3.673845,-0.0889 5.906605,0.60678 6.43667,2.05479 12.42541,3.55356 17.52097,7.05283 1.83492,1.26009 3.6314,2.67617 4.75194,4.61958 3.91987,6.79844 7.10283,14.857921 10.67392,21.446116 4.69499,8.66165 11.58107,18.33888 15.82192,28.11098 2.92245,6.73416 4.07583,13.773 4.64826,19.78591 1.07299,11.2709 -5.10611,15.56341 -13.88612,20.17406 -10.58342,5.55768 -47.725215,23.09571 -70.747125,8.85849 -2.16467,-1.33868 -5.03973,-4.10894 -8.27143,-3.47319 0,0 -5.60825,1.28147 -5.43239,6.03951 0,0 1.32084,1.0378 4.71728,-1.83974 0,0 -2.63516,8.83622 -8.16109,16.78573 -5.29054,7.61088 -13.38657,14.29216 -17.49799,16.77206 z"
       id="path3-9"
       sodipodi:nodetypes="csssscsssssssccscssscccccsccsccsccsccccssccscscscssccssscssssssscssscccccssscssssssccccscc" /></g></svg>
