<?xml version="1.0" encoding="UTF-8" standalone="no"?>
<!-- Created with Inkscape (http://www.inkscape.org/) -->

<svg
   width="63.228203mm"
   height="98.074364mm"
   viewBox="0 0 63.228203 98.074364"
   version="1.1"
   id="svg1"
   xml:space="preserve"
   xmlns="http://www.w3.org/2000/svg"
   xmlns:svg="http://www.w3.org/2000/svg"><defs
     id="defs1" /><g
     id="layer1"
     transform="translate(-45.646478,-85.145252)"><circle
       style="opacity:1;fill:#000000;stroke:#000000;stroke-width:2.645;stroke-linecap:round;stroke-linejoin:round;paint-order:markers stroke fill"
       id="path1"
       cx="78.306862"
       cy="94.392784"
       r="7.9250317" /><path
       style="opacity:1;fill:#000000;fill-opacity:1;stroke:#000000;stroke-width:0.5;stroke-linecap:round;stroke-linejoin:round;stroke-dasharray:none;paint-order:markers stroke fill"
       d="M 73.583805,151.9709 64.64434,179.323 c -3.603664,5.26378 -7.990369,3.47097 -9.938092,0.67151 -1.261351,-1.81293 -0.802609,-4.47412 -0.802609,-4.47412 l 10.392899,-32.02071 c -2.16995,-2.45298 -1.037802,-6.95799 -1.037802,-6.95799 l 3.585133,-25.63842 c 0,0 0.127297,-0.68139 1.810843,-2.63071 2.050748,-2.37449 7.488582,-3.65893 10.432868,-0.19843 l 10.640632,13.37584 13.642688,0.30021 c 0,0 2.69059,0.16216 3.75487,1.85603 1.11482,1.77431 1.32099,4.27883 -0.0738,5.94777 -0.76552,0.91596 -1.94335,1.67352 -3.88116,1.70272 l -16.344589,-0.16678 c 0,0 -1.890937,0.11157 -4.148374,-2.90974 -0.607928,-0.81364 -1.428058,-1.82355 -2.022525,-3.1611 l -2.206942,14.04636 c 0,0 -0.03356,0.43876 0.05683,1.59538 0.05841,0.74743 0.987245,1.58505 2.396154,2.69734 l 7.500479,6.27399 c 0,0 1.246346,1.16462 1.937174,3.1039 0.358863,1.00739 0.237609,2.24742 0.374293,3.59464 l 1.603876,20.37865 c 0,0 0.475917,2.57275 -2.074828,4.81134 -3.008551,2.64037 -9.540308,2.01365 -9.653748,-4.79944 l -1.291122,-19.38773"
       id="path2" /><path
       style="opacity:1;fill:none;stroke:#000000;stroke-width:0.499999;stroke-linecap:round;stroke-linejoin:round;stroke-dasharray:none;paint-order:markers stroke fill"
       d="m 64.296538,143.45251 9.293042,8.53828 5.698137,5.28375"
       id="path3" /><path
       id="rect3"
       style="opacity:1;stroke:#000000;stroke-width:0.637299;stroke-linecap:round;stroke-linejoin:round;paint-order:markers stroke fill"
       transform="matrix(0.9854464,0.16998643,-0.13932702,0.99024642,1.894916,-0.86570867)"
       d="m 66.322582,97.359444 h 6.724726 a 3.96875,3.96875 45 0 1 3.96875,3.968746 v 23.11588 a 3.96875,3.96875 135 0 1 -3.96875,3.96875 h -6.724726 a 3.96875,3.96875 45 0 1 -3.96875,-3.96875 v -23.11588 a 3.96875,3.96875 135 0 1 3.96875,-3.968746 z" /><path
       id="rect5"
       style="opacity:1;stroke:#000000;stroke-width:0.499999;stroke-linecap:round;stroke-linejoin:round;paint-order:markers stroke fill"
       d="m 103.52395,114.61214 a 1.5875,1.5875 0 0 0 -1.58763,1.5873 l -1.3e-4,5.7793 3.06919,-0.0526 3e-5,-5.72649 a 1.5353041,1.5353041 69.407037 0 0 -1.48146,-1.58747 z m -1.58783,11.02948 5e-5,5.34435 3.0695,-0.13386 1.5e-4,-5.26315 z m 1.4e-4,9.01072 10e-5,45.88511 a 1.5353041,1.5353041 69.407037 0 0 1.48147,1.58748 1.5875,1.5875 0 0 0 1.58762,-1.5873 l -2.1e-4,-46.01913 z"
       transform="matrix(0.99612128,0.0452336,-0.04710039,1.0372311,4.1817952,-11.218506)" /><path
       style="opacity:1;fill:#000000;fill-opacity:1;stroke:none;stroke-width:0.499999;stroke-linecap:round;stroke-linejoin:round;stroke-dasharray:none;paint-order:markers stroke fill"
       d="m 90.028418,131.39012 18.846262,0.10007"
       id="path7" /></g></svg>
