<?xml version="1.0" encoding="UTF-8" standalone="no"?>
<!-- Created with Inkscape (http://www.inkscape.org/) -->

<svg
   width="42.52594mm"
   height="69.339867mm"
   viewBox="0 0 42.52594 69.339867"
   version="1.1"
   id="svg1"
   xml:space="preserve"
   xmlns="http://www.w3.org/2000/svg"
   xmlns:svg="http://www.w3.org/2000/svg"><defs
     id="defs1" /><g
     id="layer1"
     transform="translate(-81.360013,-98.260958)"><circle
       style="opacity:1;fill:#000000;stroke-width:2.645;stroke-linecap:round;stroke-linejoin:round;paint-order:markers stroke fill"
       id="path1"
       cx="106.25674"
       cy="104.86515"
       r="6.6041927" /><path
       style="opacity:1;fill:#000000;fill-opacity:1;stroke:#000000;stroke-width:0.245;stroke-linecap:round;stroke-linejoin:round;stroke-dasharray:none;stroke-opacity:1;paint-order:markers stroke fill"
       d="m 112.10576,165.57656 c 2.02638,3.17173 5.45287,1.79589 6.7953,-0.10287 0.50459,-0.71369 0.55509,-1.35916 0.54369,-1.96056 -0.0217,-1.14419 -0.54569,-2.00523 -0.54569,-2.00523 l -14.88302,-23.36233 2.09919,-9.87091 c 0.12188,0.66745 0.6172,2.10601 1.34041,3.13151 0.74631,1.05825 1.74872,1.64629 1.74872,1.64629 l 10.55438,5.01647 c 2.68565,1.21142 4.43953,-1.32951 3.90961,-3.27715 -0.16442,-0.60429 -0.4556,-1.20021 -1.1343,-1.53371 l -7.80978,-3.72154 c -1.23153,-0.73965 -1.95611,-1.03577 -2.65168,-2.13451 -1.47543,-2.33067 -2.13636,-5.74335 -2.13636,-5.74335 -0.4323,-1.90424 -1.58674,-4.35558 -2.6077,-5.77673 -0.61543,-0.85666 -1.30764,-1.25202 -1.30764,-1.25202 -1.58619,-0.79602 -4.17264,-0.74002 -4.17264,-0.74002 -3.111166,-0.0825 -6.939452,2.57167 -10.035109,5.05424 -2.956648,2.37109 -5.253771,4.57391 -5.253771,4.57391 0,0 -1.152464,1.17641 -1.409298,2.59345 l -1.601098,11.62464 c 0,0 0.0684,1.88468 1.302743,2.63914 0.574335,0.35105 1.688661,0.56645 2.582099,0.25124 0.907134,-0.32006 1.63514,-1.26584 1.835748,-2.05647 l 1.14245,-8.8811 c 0,0 0.283528,-1.81791 2.051407,-3.35229 l 3.835965,-3.28559 -6.304324,28.36946 -7.843616,10.65345 c 0,0 -0.882705,1.08218 -0.620304,2.56189 0.261546,1.47489 1.756209,2.71491 3.379324,2.8313 0.987004,0.0708 1.989974,-0.15832 2.883086,-1.33655 l 8.568377,-11.59129 2.63931,-9.6733 z"
       id="path2" /></g></svg>
